<?xml version="1.0" standalone="no"?>
<!DOCTYPE svg PUBLIC "-//W3C//DTD SVG 20010904//EN"
 "http://www.w3.org/TR/2001/REC-SVG-20010904/DTD/svg10.dtd">
<svg version="1.0" xmlns="http://www.w3.org/2000/svg"
 width="626.000000pt" height="376.000000pt" viewBox="0 0 626.000000 376.000000"
 preserveAspectRatio="xMidYMid meet">

<g transform="translate(0.000000,376.000000) scale(0.100000,-0.100000)"
fill="#000000" stroke="none">
<path d="M0 2493 l0 -1267 65 64 c62 62 80 99 55 115 -24 15 -2 46 117 167
126 127 153 144 181 116 23 -23 12 -41 -85 -140 -87 -88 -96 -101 -85 -118 7
-11 12 -28 12 -38 0 -9 -58 -76 -130 -147 l-130 -130 0 -557 0 -558 123 0 122
1 237 234 c154 152 243 233 252 229 18 -7 59 33 50 48 -4 7 -3 8 4 4 8 -5 12
1 12 15 0 15 160 182 542 566 450 451 546 543 563 537 52 -17 61 -11 247 171
243 237 222 219 248 205 12 -7 20 -19 18 -30 -4 -24 -552 -587 -579 -595 -12
-4 -26 -2 -32 4 -6 6 -20 11 -31 11 -14 0 -159 -137 -426 -403 -223 -221 -434
-430 -470 -463 -36 -33 -103 -105 -150 -159 -79 -92 -113 -127 -304 -307 l-71
-68 58 0 59 0 166 160 c110 105 170 156 176 150 7 -7 -40 -61 -139 -160 l-150
-150 205 0 205 0 612 612 c552 552 614 611 628 597 14 -14 -43 -74 -575 -609
-324 -326 -590 -595 -590 -596 0 -2 1181 -4 2625 -4 l2625 0 0 1880 0 1880
-2185 0 c-1896 0 -2185 -2 -2185 -14 0 -8 5 -18 10 -21 6 -3 10 -14 10 -23 0
-9 -240 -256 -532 -550 -450 -450 -537 -532 -558 -530 -18 2 -26 10 -28 28 -2
21 61 89 398 425 220 220 400 404 400 410 0 5 -24 -14 -52 -42 -48 -46 -57
-51 -96 -49 -23 0 -44 -3 -46 -9 -3 -6 -5 -5 -5 1 -1 6 38 53 86 104 86 91 86
92 75 124 -16 44 -18 41 34 96 l47 50 -61 0 -62 0 -187 -191 c-104 -105 -190
-195 -192 -200 -1 -6 3 -24 10 -40 l12 -31 -160 -161 c-88 -89 -186 -193 -218
-232 -70 -84 -110 -124 -149 -149 -16 -10 -147 -135 -292 -278 -240 -237 -265
-258 -284 -248 -14 8 -20 19 -18 35 2 16 141 162 406 430 313 314 402 410 397
423 -22 51 -22 51 269 347 157 160 285 291 286 293 0 1 -313 2 -695 2 l-695 0
0 -1267z m3348 840 c5 -10 7 -25 4 -33 -9 -27 -566 -580 -584 -580 -9 0 -29 5
-43 12 -26 11 -35 3 -389 -351 -354 -354 -364 -365 -375 -415 -20 -91 -64
-170 -104 -189 -19 -9 -44 -17 -56 -17 -12 0 -21 -4 -21 -8 0 -4 -24 -34 -52
-67 -67 -75 -129 -115 -182 -116 l-41 -2 39 -6 c141 -22 -96 -86 -259 -70 -33
3 -87 14 -120 24 l-60 19 75 7 c41 4 87 12 101 17 l27 11 -29 56 c-16 32 -36
80 -45 109 l-16 52 -90 23 c-49 13 -114 34 -144 47 l-55 24 -16 -37 c-9 -21
-18 -58 -21 -83 -4 -45 -4 -46 62 -108 37 -34 85 -71 107 -83 23 -11 38 -23
35 -26 -7 -7 -98 50 -154 95 -144 118 -233 341 -215 536 8 92 12 94 72 51 29
-21 53 -36 54 -34 2 2 15 23 30 47 15 23 58 75 96 115 l68 72 -5 94 -5 93
-421 -421 c-376 -375 -446 -441 -446 -414 0 5 177 185 392 402 216 217 381
387 365 377 -54 -33 -25 1 46 54 39 30 100 80 133 113 38 36 67 57 74 52 8 -5
2 -17 -20 -40 l-32 -33 69 19 c44 13 84 17 113 14 88 -11 170 -27 170 -34 0
-3 -65 -71 -145 -151 -137 -137 -168 -180 -127 -180 9 0 89 71 176 159 l159
159 41 -5 c58 -8 126 -47 199 -115 l62 -58 200 200 c182 182 225 218 225 191
0 -5 -91 -103 -203 -218 l-203 -208 33 -54 c18 -30 35 -75 38 -100 4 -25 16
-77 27 -114 l21 -69 418 418 418 418 37 -13 37 -13 201 201 c203 203 233 225
254 184z m-338 -561 c0 -12 -988 -997 -1000 -997 -5 0 -11 4 -12 8 -4 11 984
997 999 997 7 0 13 -4 13 -8z m1260 -577 c0 -34 1 -35 40 -35 22 0 40 -4 40
-10 0 -5 -20 -10 -44 -10 l-43 0 -18 -92 c-10 -51 -20 -146 -23 -211 l-5 -119
24 4 c18 2 34 23 69 90 60 114 83 138 130 138 24 0 43 -7 55 -20 l18 -20 14
20 c12 16 18 18 34 9 19 -10 20 -17 14 -112 l-6 -102 20 23 c11 13 39 57 62
99 l42 75 -23 41 c-25 44 -30 118 -10 142 18 21 57 18 70 -4 12 -24 13 -76 1
-118 -12 -43 -1 -48 39 -18 39 28 70 32 70 9 0 -8 -11 -34 -24 -57 -35 -61
-66 -159 -66 -212 0 -39 3 -45 21 -45 30 0 70 49 124 153 27 50 50 86 52 80 6
-17 -94 -199 -128 -233 -56 -55 -111 -52 -136 7 -18 44 -12 108 18 190 12 30
19 56 16 59 -2 3 -28 -37 -57 -88 -59 -105 -86 -138 -111 -138 -21 0 -59 45
-59 70 0 32 -13 30 -56 -10 -24 -22 -50 -40 -57 -40 -20 0 -45 31 -49 60 -3
24 -4 24 -22 -10 -27 -52 -67 -90 -93 -90 -30 0 -59 48 -68 112 l-7 49 -35
-59 c-60 -101 -104 -107 -134 -18 l-16 47 -28 -33 c-58 -69 -95 -73 -115 -12
-18 53 5 130 52 174 28 26 78 26 107 -1 21 -20 23 -20 35 -3 9 11 19 15 31 10
16 -6 17 -16 11 -106 -4 -62 -2 -100 3 -100 6 0 27 28 47 63 34 56 38 73 50
182 19 173 21 161 -25 157 -59 -6 -59 15 -1 23 42 6 53 12 65 35 16 31 28 38
63 39 19 1 22 -4 22 -34z m-645 -65 c3 -5 -6 -47 -21 -92 -32 -99 -45 -277
-24 -328 14 -34 48 -47 79 -30 16 8 20 17 15 35 -5 18 -2 25 9 25 8 0 17 -6
20 -12 7 -22 46 53 58 111 15 72 7 192 -15 225 -34 53 -86 17 -86 -59 0 -22
11 -64 25 -92 31 -69 15 -79 -19 -11 -30 61 -33 118 -8 168 15 30 22 35 52 35
31 0 37 -5 54 -39 40 -81 28 -246 -24 -334 -20 -33 -20 -33 0 -72 15 -29 17
-41 8 -46 -7 -4 -16 0 -22 10 -30 50 -31 50 -57 33 -64 -45 -135 -3 -165 99
-32 110 1 299 62 361 24 24 49 30 59 13z m231 -518 c1 -7 0 -8 -3 -2 -11 23
-20 -2 -10 -29 l11 -29 17 22 c21 25 38 13 21 -14 -8 -13 -9 -20 -1 -20 5 0 7
-5 4 -10 -4 -6 -15 -8 -26 -5 -11 4 -19 2 -19 -4 0 -6 -9 -11 -20 -11 -11 0
-20 5 -20 10 0 6 3 9 8 9 20 -3 21 4 8 36 -9 20 -13 42 -9 51 6 17 35 15 39
-4z m624 -4 c0 -10 3 -9 9 1 6 10 14 11 27 3 12 -7 23 -6 36 2 14 8 21 8 27
-3 6 -9 11 -10 15 -2 4 6 14 11 23 11 12 0 14 -6 9 -27 -4 -16 -8 -36 -9 -45
-1 -10 -4 -18 -7 -19 -67 -9 -81 1 -59 43 6 11 8 22 5 25 -3 4 -12 -10 -21
-30 -8 -19 -20 -39 -26 -43 -14 -8 -28 14 -29 46 l-1 25 -10 -23 c-5 -13 -7
-28 -3 -33 3 -5 -4 -9 -15 -9 -24 0 -25 6 -6 40 19 34 19 45 -2 29 -16 -13
-17 -12 -4 4 16 20 41 23 41 5z m-535 -27 c3 -5 1 -12 -5 -16 -5 -3 -10 -11
-10 -17 0 -6 7 -5 17 3 15 13 15 12 4 -8 -14 -27 -24 -29 -40 -9 -9 11 -10 20
-1 35 11 22 25 27 35 12z m196 -8 c0 -11 3 -13 6 -5 8 20 20 14 25 -13 6 -29
-1 -39 -18 -24 -8 7 -14 7 -19 -1 -9 -14 -42 -13 -48 3 -2 6 -7 -4 -11 -24 -7
-40 -29 -65 -46 -54 -16 10 -12 41 8 56 14 11 15 11 5 -1 -17 -18 -18 -59 -2
-43 7 7 11 34 11 62 -1 28 3 51 8 51 6 0 10 -8 10 -17 0 -14 3 -13 20 5 25 26
50 29 51 5z m136 -18 c-1 -20 -6 -34 -11 -32 -22 7 -19 67 3 67 5 0 9 -16 8
-35z m46 18 c3 9 14 17 23 17 13 0 15 -7 12 -32 -5 -28 -4 -29 9 -13 7 11 13
14 13 9 0 -6 -6 -18 -13 -29 -19 -25 -40 -10 -33 24 l6 26 -16 -28 c-12 -23
-18 -26 -30 -17 -7 7 -12 15 -10 19 1 3 6 15 11 26 7 20 7 20 14 1 7 -17 8
-18 14 -3z m-296 -13 c-3 -11 -1 -20 5 -20 5 0 6 -5 3 -10 -4 -6 -11 -8 -16
-5 -13 9 -11 55 2 55 6 0 9 -9 6 -20z m183 -2 c0 -19 2 -20 10 -8 5 8 10 10
10 5 0 -12 -20 -35 -31 -35 -11 0 -19 29 -13 45 9 23 24 18 24 -7z m-1880 -91
c0 -7 -100 -111 -222 -232 -290 -287 -305 -300 -305 -279 0 21 494 524 513
524 8 0 14 -6 14 -13z m-1181 -217 c17 0 31 -4 31 -9 0 -6 -75 -87 -166 -180
-121 -124 -173 -171 -190 -171 -12 0 -26 5 -29 10 -14 23 -42 5 -138 -90 -82
-82 -106 -100 -126 -98 -19 2 -27 10 -30 28 -3 21 36 63 260 282 145 141 266
255 270 252 4 -2 11 0 14 6 4 7 18 3 39 -10 19 -11 47 -20 65 -20z m522 -448
c-38 -42 -128 -135 -200 -207 -107 -106 -133 -127 -143 -116 -11 10 25 50 190
212 112 109 208 196 213 193 5 -3 -22 -40 -60 -82z"/>
<path d="M1622 2470 c2 -9 -10 -14 -38 -15 -39 -2 -149 -53 -202 -94 l-21 -16
32 -128 32 -127 70 71 c39 39 96 93 128 121 100 87 64 27 -63 -105 -66 -69
-120 -132 -120 -140 0 -10 12 -18 33 -21 34 -5 244 -26 263 -26 16 0 51 85 74
182 11 46 20 88 20 95 0 18 -80 114 -90 108 -6 -4 -10 0 -10 8 0 12 -23 33
-98 90 -9 8 -12 7 -10 -3z"/>
<path d="M4686 2085 c-11 -29 -6 -91 8 -110 13 -19 15 -18 21 16 9 47 3 102
-11 106 -6 2 -14 -3 -18 -12z"/>
<path d="M3914 1888 c-20 -37 -46 -138 -36 -137 16 1 92 105 92 124 0 21 -17
45 -32 45 -4 0 -15 -15 -24 -32z"/>
<path d="M4440 1888 c-18 -30 -45 -127 -37 -135 2 -1 23 19 45 46 29 34 42 59
42 79 0 44 -26 49 -50 10z"/>
<path d="M4506 1584 c-3 -9 -6 -23 -6 -32 0 -21 15 -5 25 26 7 25 -9 31 -19 6z"/>
<path d="M4586 1584 c-17 -17 -21 -44 -7 -44 5 0 14 14 20 30 11 34 9 37 -13
14z"/>
<path d="M4121 1564 c0 -11 3 -14 6 -6 3 7 2 16 -1 19 -3 4 -6 -2 -5 -13z"/>
<path d="M1710 3715 c-24 -25 -42 -45 -39 -45 3 0 25 20 49 45 24 25 42 45 39
45 -3 0 -25 -20 -49 -45z"/>
</g>
</svg>
